<?xml version="1.0" encoding="UTF-8"?>
<svg xmlns="http://www.w3.org/2000/svg" id="Capa_1" data-name="Capa 1" viewBox="0 0 792 612" style="background: transparent;">
  <defs>
    <style>
      .cls-1 {
        fill: #051c2c;
      }

      .cls-2 {
        fill: #7a97ab;
      }

      .cls-3 {
        fill: #fff;
      }

      .cls-4 {
        fill: #f18a00;
      }

      .cls-5 {
        fill: #243746;
      }
    </style>
  </defs>
  
  <g>
    <path class="cls-3" d="M625.59,344.03c-2.06-2.09-4.83-3.23-7.8-3.23h-.01c-6.03,0-10.94,4.99-10.95,11.11,0,3.01,1.13,5.82,3.19,7.91,2.06,2.09,4.82,3.25,7.79,3.25h0c2.96,0,5.72-1.15,7.79-3.25,2.06-2.09,3.2-4.9,3.2-7.9,0-3-1.14-5.8-3.21-7.89ZM626.53,351.94c-.01,2.39-.96,4.64-2.68,6.34-1.64,1.63-3.78,2.52-6.02,2.52h-.06c-4.78-.03-8.68-4-8.69-8.86,0-2.38.93-4.62,2.62-6.32,1.65-1.66,3.82-2.57,6.09-2.57h0c2.28,0,4.45.92,6.11,2.59,1.69,1.7,2.62,3.94,2.61,6.3Z"/>
    <path class="cls-3" d="M620.41,352.83c1.38-.73,2-2.09,1.75-3.82-.24-1.61-1.29-2.69-2.74-2.8-1.22-.09-2.46-.07-3.67-.05-.53,0-1.07.02-1.6.02h-.24v11.84h2.03v-4.8c.11,0,.22,0,.33,0,.42,0,.81.01,1.2-.02.39-.03.55.07.72.44.63,1.34,1.31,2.65,1.89,3.75.11.21.38.58.72.63.21.03.43.04.65.04.14,0,.29,0,.45,0,.16,0,.34,0,.53,0h.4l-2.66-5.11c.09-.04.17-.08.24-.12ZM620.02,349.95c-.07.76-.52,1.22-1.21,1.24-.69.02-1.38.02-2.1.01-.24,0-.49,0-.74,0v-3.05c.26,0,.53,0,.79-.01.78-.02,1.58-.03,2.36.04.73.07.98.97.91,1.78Z"/>
  </g>
  <path class="cls-3" d="M591.02,413.86v-5.77c-.51.51-1.36,1.02-2.55,1.87-2.04,1.36-10.36,4.75-18.34,4.75-10.53,0-19.36-3.57-26.5-10.7-7.13-7.3-10.7-15.97-10.7-26.33s3.57-18.85,10.7-26.16c7.3-7.31,16.14-10.87,26.5-10.87s18.85,3.4,26.16,10.02c7.3,6.63,11.04,15.8,11.04,27.52v35.67h-16.31ZM570.13,399.08c11.72,0,20.89-9,20.89-21.4s-8.83-21.4-20.89-21.4-20.89,9.17-20.89,21.4,9.17,21.4,20.89,21.4Z"/>
  <path class="cls-3" d="M363.06,340.75h16.31v39.07c0,11.55-3.06,20.04-9,25.65-6.11,5.61-13.42,8.49-21.74,8.49s-15.63-2.89-21.74-8.49c-6.11-5.61-9.17-14.27-9.17-25.65v-39.07h16.31v39.07c0,12.06,5.78,18.51,14.61,18.51s14.44-6.29,14.44-18.51v-39.07Z"/>
  <path class="cls-3" d="M406.21,350.77c7.3-7.31,15.97-10.87,26.33-10.87s18.85,3.57,26.16,10.87c7.3,7.3,10.87,15.97,10.87,26.16s-3.57,19.03-10.87,26.33c-7.3,7.13-15.97,10.7-26.16,10.7s-19.02-3.57-26.33-10.7c-7.3-7.3-10.87-15.97-10.87-26.33s3.57-18.85,10.87-26.16ZM411.64,376.93c0,6.29,2.04,11.38,5.94,15.46,4.08,3.91,9,5.94,14.95,5.94s10.87-2.04,14.78-5.94c4.08-4.08,6.11-9.17,6.11-15.46s-2.04-11.38-6.11-15.29c-3.91-4.07-8.83-6.11-14.78-6.11s-10.87,2.04-14.95,6.11c-3.91,3.91-5.94,9.01-5.94,15.29Z"/>
  <path class="cls-3" d="M501.87,413.96h-16.33v-43.67c0-21.15,11.86-29.58,27.86-29.58h3.95v15.82h-3.1c-8.25,0-12.38,4.64-12.38,13.76v43.67Z"/>
  <path class="cls-3" d="M205.59,389.8h-.02l-1.53,2.21c-2.2,2.89-8.31,6.64-15.61,6.65-9,.01-17.33-5.74-20.07-14.74l55.71-.1c.34-6.97,2.63-21.58-10.42-34.12-6.93-6.66-15.3-9.83-25.32-9.81-10.36.02-19.02,3.6-26.31,10.92-7.29,7.31-10.84,15.99-10.83,26.18.02,10.36,3.6,19.02,10.75,26.31,7.32,7.12,15.98,10.67,26.34,10.66,10.02-.02,19.02-4.28,23.77-8.36,2.37-2.21,4.58-4.59,6.44-7.32,1.29-1.85,2.14-3.23,2.76-4.34l-15.66-4.14ZM168.51,369.32c2.53-8.33,9.66-13.94,19.85-13.96,10.02-.02,18.19,6.59,19.56,13.89l-39.41.07Z"/>
  <path class="cls-5" d="M364.04,227.74c-4.73-4.24-16.66-11.89-30.89,1.87h-.01c-.09.07-.16.16-.25.25-.09.09-.18.16-.27.25h.01c-13.83,14.33-6.02,26.32-1.79,30.99l.11.12.03.03c.61.67,1.13,1.17,1.5,1.5l16.88,16.88,33.15-33.31-16.83-16.98c-.28-.3-.67-.7-1.15-1.16l-.47-.44Z"/>
  <polygon class="cls-3" points="273.68 376 302.41 340.71 283.22 340.71 256.52 372.77 256.52 313.55 240.22 313.55 240.22 342.69 240.22 400.48 240.22 413.88 256.52 413.88 256.52 413.37 256.52 378.72 284.94 413.88 304.3 413.88 273.68 376"/>
  <path class="cls-2" d="M400.94,227.74c4.73-4.24,16.66-11.89,30.89,1.87h.01c.09.07.16.16.25.25.09.09.18.16.27.25h-.01c13.83,14.33,6.02,26.32,1.79,30.99l-.11.12-.03.03c-.61.67-1.13,1.17-1.5,1.5l-16.88,16.88-33.15-33.31,16.83-16.98c.28-.3.67-.7,1.15-1.16l.47-.44Z"/>
  <path class="cls-4" d="M415.64,279.62h-33.15s-33.15,0-33.15,0l21.3,21.21c2.24,2.42,5.21,4.14,8.56,4.82h0s2.84.78,6.57,0h0c3.35-.68,6.32-2.4,8.56-4.82l21.3-21.21Z"/>
</svg>